<?xml version="1.0" encoding="UTF-8"?>
<svg xmlns="http://www.w3.org/2000/svg" version="1.1" width="300" height="300" viewBox="0 0 300 300"><rect x="0" y="0" width="300" height="300" fill="#ffffff"/><g transform="scale(12)"><g transform="translate(0,0)"><path fill-rule="evenodd" d="M8 0L8 1L9 1L9 0ZM10 0L10 1L11 1L11 2L12 2L12 3L13 3L13 4L12 4L12 7L11 7L11 6L10 6L10 3L9 3L9 2L8 2L8 5L9 5L9 6L8 6L8 7L9 7L9 8L8 8L8 9L7 9L7 8L6 8L6 9L7 9L7 10L5 10L5 9L4 9L4 8L0 8L0 13L1 13L1 15L0 15L0 16L1 16L1 15L2 15L2 14L4 14L4 12L5 12L5 13L9 13L9 14L6 14L6 15L5 15L5 16L4 16L4 15L3 15L3 16L2 16L2 17L5 17L5 16L6 16L6 17L7 17L7 16L6 16L6 15L8 15L8 18L9 18L9 19L10 19L10 20L9 20L9 21L8 21L8 25L10 25L10 23L13 23L13 24L12 24L12 25L15 25L15 24L14 24L14 23L13 23L13 22L14 22L14 21L15 21L15 23L17 23L17 25L18 25L18 24L19 24L19 25L20 25L20 24L19 24L19 21L20 21L20 23L21 23L21 24L22 24L22 25L25 25L25 24L23 24L23 23L24 23L24 22L25 22L25 17L24 17L24 18L23 18L23 16L24 16L24 14L25 14L25 13L24 13L24 12L25 12L25 11L24 11L24 10L23 10L23 8L20 8L20 9L19 9L19 11L21 11L21 12L20 12L20 13L19 13L19 12L17 12L17 9L18 9L18 8L17 8L17 6L16 6L16 11L15 11L15 12L14 12L14 10L15 10L15 8L14 8L14 10L13 10L13 11L12 11L12 7L13 7L13 6L14 6L14 7L15 7L15 6L14 6L14 5L17 5L17 2L12 2L12 0ZM13 0L13 1L14 1L14 0ZM13 4L13 5L14 5L14 4ZM9 6L9 7L10 7L10 8L9 8L9 9L10 9L10 10L9 10L9 12L10 12L10 13L11 13L11 15L10 15L10 14L9 14L9 18L10 18L10 16L11 16L11 17L13 17L13 19L12 19L12 18L11 18L11 21L10 21L10 22L11 22L11 21L12 21L12 22L13 22L13 21L14 21L14 20L15 20L15 21L16 21L16 22L18 22L18 21L16 21L16 20L15 20L15 19L16 19L16 16L17 16L17 14L18 14L18 15L19 15L19 14L18 14L18 13L17 13L17 14L14 14L14 13L13 13L13 14L14 14L14 15L13 15L13 16L12 16L12 13L11 13L11 12L12 12L12 11L11 11L11 7L10 7L10 6ZM24 8L24 9L25 9L25 8ZM1 9L1 10L2 10L2 11L1 11L1 12L2 12L2 13L3 13L3 11L4 11L4 10L2 10L2 9ZM20 9L20 10L21 10L21 11L22 11L22 9ZM6 11L6 12L7 12L7 11ZM21 14L21 19L22 19L22 22L23 22L23 19L22 19L22 16L23 16L23 14ZM14 15L14 16L13 16L13 17L14 17L14 16L16 16L16 15ZM17 17L17 20L20 20L20 17ZM18 18L18 19L19 19L19 18ZM0 0L0 7L7 7L7 0ZM1 1L1 6L6 6L6 1ZM2 2L2 5L5 5L5 2ZM18 0L18 7L25 7L25 0ZM19 1L19 6L24 6L24 1ZM20 2L20 5L23 5L23 2ZM0 18L0 25L7 25L7 18ZM1 19L1 24L6 24L6 19ZM2 20L2 23L5 23L5 20Z" fill="#000000"/></g></g></svg>
