<?xml version="1.0" encoding="UTF-8"?>
<svg xmlns="http://www.w3.org/2000/svg" version="1.1" width="300" height="300" viewBox="0 0 300 300"><rect x="0" y="0" width="300" height="300" fill="#ffffff"/><g transform="scale(12)"><g transform="translate(0,0)"><path fill-rule="evenodd" d="M10 0L10 2L11 2L11 0ZM12 0L12 1L14 1L14 3L13 3L13 2L12 2L12 4L14 4L14 5L11 5L11 6L10 6L10 4L11 4L11 3L8 3L8 4L9 4L9 5L8 5L8 7L9 7L9 8L6 8L6 9L5 9L5 8L0 8L0 9L5 9L5 11L4 11L4 10L3 10L3 11L1 11L1 10L0 10L0 11L1 11L1 12L0 12L0 17L1 17L1 14L2 14L2 12L3 12L3 14L4 14L4 16L3 16L3 15L2 15L2 16L3 16L3 17L8 17L8 19L9 19L9 20L8 20L8 25L9 25L9 24L10 24L10 25L13 25L13 24L12 24L12 23L14 23L14 24L17 24L17 25L18 25L18 23L17 23L17 22L16 22L16 21L18 21L18 22L19 22L19 21L20 21L20 22L22 22L22 23L23 23L23 22L24 22L24 24L22 24L22 25L25 25L25 20L24 20L24 19L25 19L25 18L22 18L22 17L25 17L25 16L24 16L24 15L25 15L25 14L23 14L23 13L24 13L24 11L25 11L25 10L24 10L24 11L23 11L23 9L24 9L24 8L23 8L23 9L22 9L22 8L21 8L21 9L22 9L22 10L21 10L21 11L23 11L23 12L20 12L20 8L19 8L19 10L17 10L17 9L18 9L18 8L17 8L17 3L15 3L15 2L16 2L16 1L14 1L14 0ZM8 1L8 2L9 2L9 1ZM15 4L15 5L14 5L14 6L13 6L13 7L12 7L12 6L11 6L11 7L12 7L12 9L11 9L11 8L10 8L10 9L8 9L8 10L7 10L7 9L6 9L6 10L7 10L7 11L6 11L6 12L4 12L4 11L3 11L3 12L4 12L4 13L5 13L5 14L7 14L7 15L6 15L6 16L8 16L8 17L9 17L9 18L11 18L11 20L10 20L10 21L11 21L11 22L13 22L13 21L12 21L12 19L13 19L13 20L14 20L14 19L15 19L15 20L16 20L16 18L15 18L15 17L13 17L13 16L14 16L14 15L15 15L15 14L16 14L16 13L12 13L12 11L13 11L13 12L18 12L18 11L14 11L14 10L16 10L16 9L17 9L17 8L16 8L16 9L14 9L14 10L12 10L12 9L13 9L13 8L14 8L14 6L15 6L15 7L16 7L16 6L15 6L15 5L16 5L16 4ZM9 6L9 7L10 7L10 6ZM10 9L10 11L11 11L11 9ZM8 11L8 12L6 12L6 13L7 13L7 14L8 14L8 12L9 12L9 13L11 13L11 12L9 12L9 11ZM19 12L19 13L18 13L18 14L19 14L19 15L20 15L20 14L22 14L22 13L20 13L20 12ZM19 13L19 14L20 14L20 13ZM9 14L9 15L8 15L8 16L11 16L11 17L12 17L12 18L13 18L13 19L14 19L14 18L13 18L13 17L12 17L12 15L13 15L13 14ZM16 15L16 16L17 16L17 15ZM21 15L21 16L23 16L23 15ZM17 17L17 20L20 20L20 17ZM18 18L18 19L19 19L19 18ZM21 18L21 21L22 21L22 22L23 22L23 21L22 21L22 20L23 20L23 19L22 19L22 18ZM14 21L14 23L16 23L16 22L15 22L15 21ZM19 23L19 25L20 25L20 23ZM0 0L0 7L7 7L7 0ZM1 1L1 6L6 6L6 1ZM2 2L2 5L5 5L5 2ZM18 0L18 7L25 7L25 0ZM19 1L19 6L24 6L24 1ZM20 2L20 5L23 5L23 2ZM0 18L0 25L7 25L7 18ZM1 19L1 24L6 24L6 19ZM2 20L2 23L5 23L5 20Z" fill="#000000"/></g></g></svg>
